<svg xmlns="http://www.w3.org/2000/svg" viewBox="0 0 512 512" role="img" aria-label="Ahorcado en familia">
  <rect width="512" height="512" rx="96" fill="#0b1120"/>
  <g stroke="#1e293b" stroke-width="2">
    <line x1="0" y1="128" x2="512" y2="128"/>
    <line x1="0" y1="256" x2="512" y2="256"/>
    <line x1="0" y1="384" x2="512" y2="384"/>
    <line x1="128" y1="0" x2="128" y2="512"/>
    <line x1="256" y1="0" x2="256" y2="512"/>
    <line x1="384" y1="0" x2="384" y2="512"/>
  </g>
  <g fill="none" stroke="#fbbf24" stroke-width="20" stroke-linecap="round" stroke-linejoin="round">
    <path d="M120 432 L120 110 L300 110 L300 160"/>
    <line x1="100" y1="432" x2="220" y2="432"/>
    <circle cx="300" cy="200" r="36" fill="none"/>
    <line x1="300" y1="240" x2="300" y2="340"/>
    <line x1="300" y1="270" x2="260" y2="310"/>
    <line x1="300" y1="270" x2="340" y2="310"/>
    <line x1="300" y1="340" x2="270" y2="390"/>
    <line x1="300" y1="340" x2="330" y2="390"/>
  </g>
  <g fill="#fbbf24" font-family="'Segoe UI', system-ui, sans-serif" font-weight="900" text-anchor="middle">
    <text x="410" y="440" font-size="120">A</text>
  </g>
</svg>
